<svg width="16" height="16" viewBox="0 0 16 16" fill="none" xmlns="http://www.w3.org/2000/svg">
<path d="M14.1105 7.44425C13.9629 7.44425 13.8214 7.38573 13.7171 7.28157C13.6127 7.17741 13.5541 7.03613 13.5541 6.88882C13.5529 5.7107 13.0836 4.58116 12.2492 3.74811C11.4147 2.91505 10.2833 2.44652 9.10319 2.44534C8.95564 2.44534 8.81412 2.38682 8.70978 2.28266C8.60545 2.1785 8.54683 2.03722 8.54683 1.88991C8.54683 1.7426 8.60545 1.60132 8.70978 1.49716C8.81412 1.39299 8.95564 1.33447 9.10319 1.33447C10.5783 1.33609 11.9925 1.9218 13.0355 2.96309C14.0785 4.00438 14.6652 5.41621 14.6668 6.88882C14.6668 7.03613 14.6082 7.17741 14.5039 7.28157C14.3995 7.38573 14.258 7.44425 14.1105 7.44425ZM12.4414 6.88882C12.4414 6.00496 12.0897 5.15729 11.4636 4.53231C10.8376 3.90732 9.98853 3.55621 9.10319 3.55621C8.95564 3.55621 8.81412 3.61473 8.70978 3.71889C8.60545 3.82306 8.54683 3.96434 8.54683 4.11165C8.54683 4.25896 8.60545 4.40023 8.70978 4.5044C8.81412 4.60856 8.95564 4.66708 9.10319 4.66708C9.69342 4.66708 10.2595 4.90116 10.6768 5.31781C11.0942 5.73447 11.3286 6.29958 11.3286 6.88882C11.3286 7.03613 11.3873 7.17741 11.4916 7.28157C11.5959 7.38573 11.7375 7.44425 11.885 7.44425C12.0326 7.44425 12.1741 7.38573 12.2784 7.28157C12.3828 7.17741 12.4414 7.03613 12.4414 6.88882ZM13.6559 13.6451L14.1622 13.0625C14.4845 12.7397 14.6654 12.3026 14.6654 11.8469C14.6654 11.3912 14.4845 10.9541 14.1622 10.6313C14.145 10.6141 12.8063 9.58601 12.8063 9.58601C12.4851 9.2807 12.0583 9.1107 11.6148 9.11132C11.1712 9.11194 10.745 9.28314 10.4246 9.58934L9.36413 10.4814C8.49852 10.1237 7.71222 9.59888 7.05037 8.93699C6.38852 8.2751 5.86416 7.48921 5.50741 6.62443L6.3976 5.56911C6.70455 5.24927 6.87623 4.82364 6.87696 4.3807C6.87769 3.93776 6.7074 3.51157 6.40149 3.19074C6.40149 3.19074 5.37055 1.85603 5.3533 1.83881C5.03587 1.51985 4.60548 1.33837 4.15513 1.33359C3.70478 1.32881 3.27063 1.50111 2.94647 1.81326L2.30665 2.36869C-1.47328 6.74663 6.66632 14.8099 11.1962 14.6649C11.6537 14.6675 12.107 14.5787 12.5295 14.4035C12.9519 14.2284 13.3349 13.9705 13.6559 13.6451Z" fill="white"/>
</svg>
