<svg width="16" height="16" viewBox="0 0 16 16" fill="none" xmlns="http://www.w3.org/2000/svg">
<path d="M11.7335 3.54018L7.96682 1.51352C7.56682 1.30018 7.09348 1.30018 6.69348 1.51352L2.93348 3.54018C2.66015 3.69352 2.48682 3.98685 2.48682 4.30685C2.48682 4.63352 2.65348 4.92685 2.93348 5.07352L6.70015 7.10018C6.90015 7.20685 7.12015 7.26018 7.33348 7.26018C7.54682 7.26018 7.77348 7.20685 7.96682 7.10018L11.7335 5.07352C12.0068 4.92685 12.1802 4.63352 12.1802 4.30685C12.1802 3.98685 12.0068 3.69352 11.7335 3.54018Z" fill="white"/>
<path d="M6.08016 7.80673L2.58016 6.06006C2.30683 5.92006 2.00016 5.94006 1.74016 6.09339C1.48683 6.25339 1.3335 6.52673 1.3335 6.82673V10.1334C1.3335 10.7067 1.6535 11.2201 2.16683 11.4801L5.66683 13.2267C5.78683 13.2867 5.92016 13.3201 6.0535 13.3201C6.20683 13.3201 6.36683 13.2734 6.50683 13.1934C6.76016 13.0334 6.9135 12.7601 6.9135 12.4601V9.15339C6.90683 8.58006 6.58683 8.06673 6.08016 7.80673Z" fill="white"/>
<path d="M13.3336 6.82673V8.46673C13.0136 8.37339 12.6736 8.33339 12.3336 8.33339C11.4269 8.33339 10.5403 8.64673 9.84025 9.20673C8.88025 9.96006 8.33359 11.1001 8.33359 12.3334C8.33359 12.6601 8.37359 12.9867 8.46025 13.3001C8.36025 13.2867 8.26025 13.2467 8.16692 13.1867C7.91359 13.0334 7.76025 12.7601 7.76025 12.4601V9.15339C7.76025 8.58006 8.08025 8.06673 8.58692 7.80673L12.0869 6.06006C12.3603 5.92006 12.6669 5.94006 12.9269 6.09339C13.1803 6.25339 13.3336 6.52673 13.3336 6.82673Z" fill="white"/>
<path d="M15.0535 14.3333L14.4935 13.7733C14.7868 13.3333 14.9602 12.7999 14.9602 12.2333C14.9602 10.6799 13.7002 9.41992 12.1468 9.41992C10.5935 9.41992 9.3335 10.6799 9.3335 12.2333C9.3335 13.7866 10.5935 15.0466 12.1468 15.0466C12.7135 15.0466 13.2468 14.8733 13.6868 14.5799L14.2468 15.1399C14.3602 15.2533 14.5002 15.3066 14.6468 15.3066C14.7935 15.3066 14.9402 15.2533 15.0468 15.1399C15.2735 14.9133 15.2735 14.5533 15.0535 14.3333Z" fill="white"/>
</svg>
