<svg xmlns="http://www.w3.org/2000/svg" width="20" height="18" viewBox="0 0 20 18" fill="none">
  <path opacity="0.4" fill-rule="evenodd" clip-rule="evenodd" d="M9.99024 0.881891H10C11.3951 0.881891 12.7512 1.21662 14 1.84572L10.7415 5.13497C10.5073 5.09559 10.2537 5.06605 10 5.06605C7.8439 5.06605 6.09756 6.82832 6.09756 9.00409C6.09756 9.26006 6.12683 9.51603 6.16585 9.75231L2.5561 13.395C1.58049 12.253 0.731707 10.8737 0.0585366 9.28959C-0.0195122 9.11238 -0.0195122 8.89579 0.0585366 8.70873C2.14634 3.80588 5.86341 0.881891 9.99024 0.881891ZM16.4293 3.54991C17.8439 4.84946 19.0439 6.60188 19.9415 8.70873C20.0195 8.89579 20.0195 9.11238 19.9415 9.28959C17.8537 14.1924 14.1366 17.1263 10 17.1263H9.99024C8.10732 17.1263 6.30244 16.506 4.71219 15.3739L7.80488 12.253C8.42927 12.6753 9.19024 12.9323 10 12.9323C12.1463 12.9323 13.8927 11.17 13.8927 9.00409C13.8927 8.18694 13.639 7.41903 13.2195 6.78894L16.4293 3.54991Z" fill="#130F26"/>
  <path fill-rule="evenodd" clip-rule="evenodd" d="M16.4293 3.54952L18.205 1.75771C18.4976 1.4722 18.4976 0.999638 18.205 0.714131C17.922 0.428623 17.4635 0.428623 17.1708 0.714131L16.2537 1.63957C16.244 1.65926 16.2245 1.67895 16.205 1.69864C16.1952 1.71833 16.1757 1.73802 16.1562 1.75771L15.2879 2.63491L12.1952 5.7558L1.72691 16.3186L1.69764 16.358C1.50252 16.6435 1.54154 17.0383 1.78545 17.2844C1.92203 17.4311 2.11715 17.5 2.30252 17.5C2.48789 17.5 2.67325 17.4311 2.81959 17.2844L13.2196 6.78855L16.4293 3.54952ZM10.0002 11.4555C11.3368 11.4555 12.4294 10.3529 12.4294 9.00409C12.4294 8.59059 12.3319 8.19679 12.1563 7.86206L8.86847 11.1798C9.20018 11.3571 9.59042 11.4555 10.0002 11.4555Z" fill="#130F26"/>
</svg>