<svg width="178" height="32" viewBox="0 0 178 32" fill="none" xmlns="http://www.w3.org/2000/svg">
<path d="M42.5623 16.0052H31.2337C31.1278 18.4416 32.0807 20.2425 34.9393 20.2425C36.9509 20.2425 38.9625 19.6069 40.0213 19.1832L40.5506 22.679C38.9625 23.4205 36.5274 24.0561 33.6688 24.0561C28.7986 24.0561 25.9399 21.3018 25.9399 16.6408C25.9399 13.7806 26.8928 10.6026 28.5868 8.37796C30.3867 5.72962 33.2453 4.14062 36.7392 4.14062C40.9741 4.14062 43.4093 6.57709 43.4093 10.9204C43.4093 11.9797 43.0916 14.3102 42.5623 16.0052ZM36.1039 7.42456C34.5158 7.42456 33.1394 8.48389 32.1865 10.3907C31.763 11.2382 31.763 11.45 31.4454 12.4034H38.1155C38.2214 11.8738 38.4331 10.9204 38.4331 10.2848C38.539 8.37796 37.692 7.42456 36.1039 7.42456Z" fill="white"/>
<path d="M7.41122 29.3543H2.32924L0 4.67188H5.50548L6.45835 21.4093L14.1872 4.67188H19.7986L7.41122 29.3543Z" fill="white"/>
<path d="M54.6317 8.27108H51.6672L49.5497 18.3347C49.4439 18.6525 49.1262 20.3475 50.9261 20.4534C51.4555 20.4534 52.1966 20.3475 52.5142 20.2415C52.5142 20.2415 51.6672 24.1611 47.7499 24.1611C44.7854 24.1611 43.409 21.9365 44.0443 18.5466L47.644 1.70321C47.644 1.70321 49.6556 -0.521391 53.4671 0.114209C52.8318 3.29221 52.5142 4.66934 52.5142 4.66934H55.4787L54.6317 8.27108Z" fill="white"/>
<path d="M91.4764 8.26917H88.5119L86.3944 18.3328C86.2886 18.6506 85.9709 20.3456 87.7708 20.4515C88.3002 20.4515 89.0413 20.3456 89.3589 20.2396C89.3589 20.2396 88.5119 24.1592 84.5946 24.1592C81.6301 24.1592 80.2537 21.9346 80.889 18.5447L84.3828 1.91317C84.3828 1.91317 86.3944 -0.31143 90.2059 0.32417C89.5707 3.50217 89.2531 4.8793 89.2531 4.8793H92.2175L91.4764 8.26917Z" fill="white"/>
<path d="M79.4061 16.0052H68.0775C67.9716 18.4416 68.9245 20.2425 71.7831 20.2425C73.7947 20.2425 75.8063 19.6069 76.8651 19.1832L77.3945 22.679C75.8063 23.4205 73.3712 24.0561 70.5126 24.0561C65.6424 24.0561 62.8896 21.3018 62.8896 16.6408C62.8896 13.7806 63.8425 10.6026 65.4306 8.37796C67.3364 5.72962 70.0891 4.14062 73.583 4.14062C77.818 4.14062 80.2531 6.57709 80.2531 10.9204C80.2531 11.9797 79.9355 14.3102 79.4061 16.0052ZM72.9477 7.42456C71.3596 7.42456 69.9832 8.48389 69.0304 10.3907C68.6069 11.2382 68.6069 11.45 68.2893 12.4034H74.9594C75.0652 11.8738 75.277 10.9204 75.277 10.2848C75.3828 8.37796 74.43 7.42456 72.9477 7.42456Z" fill="white"/>
<path d="M131.39 8.2704C130.12 7.74074 128.637 7.74074 127.685 8.16447L124.402 23.8426H118.897L122.814 5.728C125.144 4.4568 129.379 3.71527 132.661 4.35087L131.39 8.2704Z" fill="white"/>
<path d="M104.709 29.3543L104.815 23.8458H97.2981L94.2277 29.3543H88.8281L103.651 4.67188H109.262L110.215 29.3543H104.709ZM104.921 10.1804L99.2038 20.35H104.815L104.921 10.1804Z" fill="white"/>
<path d="M49.4428 32.0002C44.5726 32.0002 41.8199 28.8222 42.2434 25.4324C44.6785 28.1866 49.2311 28.2926 51.8779 25.8561C52.8308 25.0086 53.6778 23.6315 54.313 20.3476C55.4777 14.7331 57.5952 4.56348 57.5952 4.56348H63.1006L59.2892 22.5722C58.1245 28.3985 54.4189 32.0002 49.4428 32.0002Z" fill="white"/>
<path d="M22.2331 23.8458H16.8335L20.8567 4.67188H26.2563L22.2331 23.8458Z" fill="white"/>
<path d="M116.462 23.8458H110.956L114.979 4.67188H120.485L116.462 23.8458Z" fill="white"/>
<path d="M128.955 24.0563C128.002 24.0563 127.367 23.4207 127.367 22.5732C127.367 21.408 128.425 20.3486 129.59 20.3486C130.543 20.3486 131.178 20.9842 131.178 21.8317C131.284 22.997 130.119 24.0563 128.955 24.0563Z" fill="white"/>
<path d="M142.719 12.4001C142.401 12.1883 141.872 11.8705 141.237 11.8705C140.178 11.8705 139.225 12.5061 138.484 13.7773C137.743 14.9425 137.319 16.8493 137.319 18.2265C137.319 20.0273 138.061 20.8748 139.225 20.8748C139.966 20.8748 140.707 20.6629 141.131 20.3451L141.449 22.8875C140.813 23.5231 139.543 23.9469 137.849 23.9469C135.096 23.9469 133.084 21.8282 133.084 18.4383C133.084 16.3197 133.931 13.7773 135.096 12.0823C136.472 10.0696 138.59 9.11621 140.602 9.11621C142.19 9.11621 143.566 9.75181 143.99 10.1755L142.719 12.4001Z" fill="white"/>
<path d="M153.412 20.8783C152.142 22.7851 150.024 24.0563 147.377 24.0563C143.989 24.0563 142.295 21.9376 142.295 18.7596C142.295 16.6409 143.037 14.0985 144.201 12.4036C145.578 10.3909 147.589 9.22559 150.236 9.22559C153.624 9.22559 155.424 11.3443 155.424 14.4163C155.424 16.535 154.577 19.1833 153.412 20.8783ZM149.918 11.768C148.86 11.768 148.013 12.6155 147.483 13.8867C146.848 15.2638 146.319 17.7003 146.319 19.1833C146.319 20.4545 146.636 21.1961 147.801 21.1961C148.966 21.1961 149.707 20.4545 150.236 19.1833C150.871 17.8062 151.401 15.3697 151.401 13.8867C151.401 12.6155 150.977 11.768 149.918 11.768Z" fill="white"/>
<path d="M177.234 13.8867L175.223 23.8444H171.094L173.211 13.6748C173.211 13.4629 173.317 13.357 173.317 13.1451C173.317 12.2977 172.788 11.768 171.623 11.768C170.882 11.768 170.141 12.0858 169.611 12.5095L167.282 23.8444H163.153L165.27 13.6748C165.27 13.4629 165.376 13.357 165.376 13.1451C165.376 12.2977 164.741 11.768 163.471 11.768C162.835 11.768 162.2 11.8739 161.671 12.0858L159.236 23.8444H155.106L157.965 10.2849C159.659 9.54339 161.671 9.22559 164 9.22559C165.906 9.22559 167.494 9.86119 168.129 10.7087C169.082 9.96712 170.882 9.22559 173.317 9.22559C176.281 9.22559 177.658 10.7087 177.658 12.8273C177.34 13.2511 177.34 13.5689 177.234 13.8867Z" fill="white"/>
</svg>
