<svg width="24" height="24" viewBox="0 0 24 24" fill="none" xmlns="http://www.w3.org/2000/svg">
<mask id="mask0_2372_4585" style="mask-type:luminance" maskUnits="userSpaceOnUse" x="3" y="3" width="18" height="18">
<path fill-rule="evenodd" clip-rule="evenodd" d="M10.4068 17.4548C14.323 17.4548 17.4977 14.2801 17.4977 10.3639C17.4977 6.44766 14.323 3.27295 10.4068 3.27295C6.49063 3.27295 3.31592 6.44766 3.31592 10.3639C3.31592 14.2801 6.49063 17.4548 10.4068 17.4548ZM10.4069 15.2729C13.1181 15.2729 15.3159 13.0751 15.3159 10.3639C15.3159 7.65264 13.1181 5.45477 10.4069 5.45477C7.69564 5.45477 5.49776 7.65264 5.49776 10.3639C5.49776 13.0751 7.69564 15.2729 10.4069 15.2729ZM17.1782 15.5925L15.6354 17.1353L19.2241 20.724L20.773 19.1893L17.1782 15.5925Z" fill="white"/>
</mask>
<g mask="url(#mask0_2372_4585)">
<rect width="17.4545" height="17.4545" transform="translate(3.27295 3.27295)" fill="white"/>
<rect x="3.27295" y="3.27295" width="17.4545" height="17.4545" fill="white"/>
</g>
</svg>
