<svg width="24" height="24" viewBox="0 0 24 24" fill="none" xmlns="http://www.w3.org/2000/svg">
<path d="M17.8333 2H6.16667C5.062 2.00132 4.00296 2.44073 3.22185 3.22185C2.44073 4.00296 2.00132 5.062 2 6.16667L2 17.8333C2.00132 18.938 2.44073 19.997 3.22185 20.7782C4.00296 21.5593 5.062 21.9987 6.16667 22V19.5C6.16667 17.9529 6.78125 16.4692 7.87521 15.3752C8.96917 14.2812 10.4529 13.6667 12 13.6667C13.5471 13.6667 15.0308 14.2812 16.1248 15.3752C17.2188 16.4692 17.8333 17.9529 17.8333 19.5V22C18.938 21.9987 19.997 21.5593 20.7782 20.7782C21.5593 19.997 21.9987 18.938 22 17.8333V6.16667C21.9987 5.062 21.5593 4.00296 20.7782 3.22185C19.997 2.44073 18.938 2.00132 17.8333 2V2ZM12 12C11.3407 12 10.6963 11.8045 10.1481 11.4382C9.59994 11.072 9.17269 10.5514 8.9204 9.94228C8.66811 9.33319 8.6021 8.66297 8.73072 8.01637C8.85933 7.36976 9.1768 6.77582 9.64298 6.30964C10.1092 5.84347 10.7031 5.526 11.3497 5.39738C11.9963 5.26876 12.6665 5.33478 13.2756 5.58707C13.8847 5.83936 14.4053 6.2666 14.7716 6.81477C15.1378 7.36293 15.3333 8.0074 15.3333 8.66667C15.3333 9.55072 14.9821 10.3986 14.357 11.0237C13.7319 11.6488 12.8841 12 12 12Z" fill="white"/>
<path d="M12.0002 10.3333C12.9206 10.3333 13.6668 9.58714 13.6668 8.66666C13.6668 7.74619 12.9206 7 12.0002 7C11.0797 7 10.3335 7.74619 10.3335 8.66666C10.3335 9.58714 11.0797 10.3333 12.0002 10.3333Z" fill="white"/>
<path d="M12.0002 15.3333C10.8955 15.3346 9.83646 15.774 9.05534 16.5551C8.27423 17.3362 7.83482 18.3953 7.8335 19.4999V21.9999H16.1668V19.4999C16.1655 18.3953 15.7261 17.3362 14.945 16.5551C14.1639 15.774 13.1048 15.3346 12.0002 15.3333Z" fill="white"/>
</svg>
